<svg width="163" height="38" viewBox="0 0 163 38" fill="none" xmlns="http://www.w3.org/2000/svg">
<path d="M15.984 28H12.624L5.016 16.504V28H1.656V11.224H5.016L12.624 22.744V11.224H15.984V28ZM31.6644 21.064C31.6644 21.544 31.6324 21.976 31.5684 22.36H21.8484C21.9284 23.32 22.2644 24.072 22.8564 24.616C23.4484 25.16 24.1764 25.432 25.0404 25.432C26.2884 25.432 27.1764 24.896 27.7044 23.824H31.3284C30.9444 25.104 30.2084 26.16 29.1204 26.992C28.0324 27.808 26.6964 28.216 25.1124 28.216C23.8324 28.216 22.6804 27.936 21.6564 27.376C20.6484 26.8 19.8564 25.992 19.2804 24.952C18.7204 23.912 18.4404 22.712 18.4404 21.352C18.4404 19.976 18.7204 18.768 19.2804 17.728C19.8404 16.688 20.6244 15.888 21.6324 15.328C22.6404 14.768 23.8004 14.488 25.1124 14.488C26.3764 14.488 27.5044 14.76 28.4964 15.304C29.5044 15.848 30.2804 16.624 30.8244 17.632C31.3844 18.624 31.6644 19.768 31.6644 21.064ZM28.1844 20.104C28.1684 19.24 27.8564 18.552 27.2484 18.04C26.6404 17.512 25.8964 17.248 25.0164 17.248C24.1844 17.248 23.4804 17.504 22.9044 18.016C22.3444 18.512 22.0004 19.208 21.8724 20.104H28.1844ZM41.4609 28L38.7249 23.872L36.3009 28H32.7009L37.0449 21.328L32.6529 14.704H36.4449L39.1569 18.808L41.6049 14.704H45.2049L40.8369 21.328L45.2529 28H41.4609ZM50.9899 17.464V23.896C50.9899 24.344 51.0939 24.672 51.3019 24.88C51.5259 25.072 51.8939 25.168 52.4059 25.168H53.9659V28H51.8539C49.0219 28 47.6059 26.624 47.6059 23.872V17.464H46.0219V14.704H47.6059V11.416H50.9899V14.704H53.9659V17.464H50.9899ZM67.8853 28.168C66.7173 28.168 65.6613 27.968 64.7173 27.568C63.7893 27.168 63.0533 26.592 62.5093 25.84C61.9653 25.088 61.6853 24.2 61.6693 23.176H65.2693C65.3173 23.864 65.5573 24.408 65.9893 24.808C66.4373 25.208 67.0453 25.408 67.8133 25.408C68.5973 25.408 69.2133 25.224 69.6613 24.856C70.1093 24.472 70.3333 23.976 70.3333 23.368C70.3333 22.872 70.1813 22.464 69.8773 22.144C69.5733 21.824 69.1893 21.576 68.7253 21.4C68.2773 21.208 67.6533 21 66.8533 20.776C65.7653 20.456 64.8773 20.144 64.1893 19.84C63.5173 19.52 62.9333 19.048 62.4373 18.424C61.9573 17.784 61.7173 16.936 61.7173 15.88C61.7173 14.888 61.9653 14.024 62.4613 13.288C62.9573 12.552 63.6533 11.992 64.5493 11.608C65.4453 11.208 66.4693 11.008 67.6213 11.008C69.3493 11.008 70.7493 11.432 71.8213 12.28C72.9093 13.112 73.5093 14.28 73.6213 15.784H69.9253C69.8933 15.208 69.6453 14.736 69.1813 14.368C68.7333 13.984 68.1333 13.792 67.3813 13.792C66.7253 13.792 66.1973 13.96 65.7973 14.296C65.4133 14.632 65.2213 15.12 65.2213 15.76C65.2213 16.208 65.3653 16.584 65.6533 16.888C65.9573 17.176 66.3253 17.416 66.7573 17.608C67.2053 17.784 67.8293 17.992 68.6293 18.232C69.7173 18.552 70.6053 18.872 71.2933 19.192C71.9813 19.512 72.5733 19.992 73.0693 20.632C73.5653 21.272 73.8133 22.112 73.8133 23.152C73.8133 24.048 73.5813 24.88 73.1173 25.648C72.6533 26.416 71.9733 27.032 71.0773 27.496C70.1813 27.944 69.1173 28.168 67.8853 28.168ZM80.6383 17.464V23.896C80.6383 24.344 80.7423 24.672 80.9503 24.88C81.1743 25.072 81.5423 25.168 82.0543 25.168H83.6143V28H81.5023C78.6703 28 77.2543 26.624 77.2543 23.872V17.464H75.6703V14.704H77.2543V11.416H80.6383V14.704H83.6143V17.464H80.6383ZM85.167 21.304C85.167 19.96 85.431 18.768 85.959 17.728C86.503 16.688 87.231 15.888 88.143 15.328C89.071 14.768 90.103 14.488 91.239 14.488C92.231 14.488 93.095 14.688 93.831 15.088C94.583 15.488 95.183 15.992 95.631 16.6V14.704H99.015V28H95.631V26.056C95.199 26.68 94.599 27.2 93.831 27.616C93.079 28.016 92.207 28.216 91.215 28.216C90.095 28.216 89.071 27.928 88.143 27.352C87.231 26.776 86.503 25.968 85.959 24.928C85.431 23.872 85.167 22.664 85.167 21.304ZM95.631 21.352C95.631 20.536 95.471 19.84 95.151 19.264C94.831 18.672 94.399 18.224 93.855 17.92C93.311 17.6 92.727 17.44 92.103 17.44C91.479 17.44 90.903 17.592 90.375 17.896C89.847 18.2 89.415 18.648 89.079 19.24C88.759 19.816 88.599 20.504 88.599 21.304C88.599 22.104 88.759 22.808 89.079 23.416C89.415 24.008 89.847 24.464 90.375 24.784C90.919 25.104 91.495 25.264 92.103 25.264C92.727 25.264 93.311 25.112 93.855 24.808C94.399 24.488 94.831 24.04 95.151 23.464C95.471 22.872 95.631 22.168 95.631 21.352ZM106.209 17.464V23.896C106.209 24.344 106.313 24.672 106.521 24.88C106.745 25.072 107.113 25.168 107.625 25.168H109.185V28H107.073C104.241 28 102.825 26.624 102.825 23.872V17.464H101.241V14.704H102.825V11.416H106.209V14.704H109.185V17.464H106.209ZM113.305 13.12C112.713 13.12 112.217 12.936 111.817 12.568C111.433 12.184 111.241 11.712 111.241 11.152C111.241 10.592 111.433 10.128 111.817 9.76C112.217 9.376 112.713 9.184 113.305 9.184C113.897 9.184 114.385 9.376 114.769 9.76C115.169 10.128 115.369 10.592 115.369 11.152C115.369 11.712 115.169 12.184 114.769 12.568C114.385 12.936 113.897 13.12 113.305 13.12ZM114.961 14.704V28H111.601V14.704H114.961ZM124.185 28.216C122.905 28.216 121.753 27.936 120.729 27.376C119.705 26.8 118.897 25.992 118.305 24.952C117.729 23.912 117.441 22.712 117.441 21.352C117.441 19.992 117.737 18.792 118.329 17.752C118.937 16.712 119.761 15.912 120.801 15.352C121.841 14.776 123.001 14.488 124.281 14.488C125.561 14.488 126.721 14.776 127.761 15.352C128.801 15.912 129.617 16.712 130.209 17.752C130.817 18.792 131.121 19.992 131.121 21.352C131.121 22.712 130.809 23.912 130.185 24.952C129.577 25.992 128.745 26.8 127.689 27.376C126.649 27.936 125.481 28.216 124.185 28.216ZM124.185 25.288C124.793 25.288 125.361 25.144 125.889 24.856C126.433 24.552 126.865 24.104 127.185 23.512C127.505 22.92 127.665 22.2 127.665 21.352C127.665 20.088 127.329 19.12 126.657 18.448C126.001 17.76 125.193 17.416 124.233 17.416C123.273 17.416 122.465 17.76 121.809 18.448C121.169 19.12 120.849 20.088 120.849 21.352C120.849 22.616 121.161 23.592 121.785 24.28C122.425 24.952 123.225 25.288 124.185 25.288ZM140.954 14.512C142.538 14.512 143.818 15.016 144.794 16.024C145.77 17.016 146.258 18.408 146.258 20.2V28H142.898V20.656C142.898 19.6 142.634 18.792 142.106 18.232C141.578 17.656 140.858 17.368 139.946 17.368C139.018 17.368 138.282 17.656 137.738 18.232C137.21 18.792 136.946 19.6 136.946 20.656V28H133.586V14.704H136.946V16.36C137.394 15.784 137.962 15.336 138.65 15.016C139.354 14.68 140.122 14.512 140.954 14.512Z" fill="white"/>
<circle cx="113.375" cy="11.375" r="2.375" fill="#FBE20A"/>
<path d="M150.396 10.7293L161.188 2.03458M150.626 11.1971L152.361 15.854C152.781 16.9793 152.99 17.542 153.311 17.7213C153.59 17.8769 153.926 17.8902 154.216 17.7572C154.55 17.6039 154.804 17.0596 155.311 15.971L160.799 4.19236C161.241 3.2439 161.462 2.76965 161.382 2.43162C161.313 2.13756 161.114 1.89077 160.841 1.76025C160.528 1.6102 160.017 1.72543 158.997 1.95586L146.321 4.81766C145.15 5.08213 144.564 5.21438 144.343 5.50839C144.152 5.76354 144.093 6.0948 144.186 6.4C144.293 6.75175 144.799 7.07617 145.809 7.72481L149.991 10.4093C150.158 10.5162 150.241 10.5696 150.311 10.6365C150.373 10.696 150.427 10.7632 150.472 10.8364C150.523 10.919 150.557 11.0117 150.626 11.1971Z" stroke="#FBE20A" stroke-width="2" stroke-linecap="round" stroke-linejoin="round"/>
</svg>
