<svg width="76" height="63" viewBox="0 0 76 63" fill="none" xmlns="http://www.w3.org/2000/svg">
<rect width="76" height="63" rx="12" fill="#B4D9FF"/>
<path d="M26 42.5H29C29 44.1545 30.3455 45.5 32 45.5H44C45.6545 45.5 47 44.1545 47 42.5H50C51.6545 42.5 53 41.1545 53 39.5V24.5C53 22.8455 51.6545 21.5 50 21.5H47C47 19.8455 45.6545 18.5 44 18.5H32C30.3455 18.5 29 19.8455 29 21.5H26C24.3455 21.5 23 22.8455 23 24.5V39.5C23 41.1545 24.3455 42.5 26 42.5ZM50 24.5V39.5H47V24.5H50ZM32 21.5H44L44.0015 42.5H32V21.5ZM26 24.5H29V39.5H26V24.5Z" fill="#113B65"/>
</svg>
