<svg width="27" height="27" viewBox="0 0 27 27" fill="none" xmlns="http://www.w3.org/2000/svg">
<path d="M11.3426 14.7166L22.134 6.02188M11.5726 15.1844L13.3075 19.8413C13.7269 20.9666 13.9365 21.5293 14.2574 21.7086C14.536 21.8642 14.8721 21.8775 15.1622 21.7445C15.4964 21.5912 15.7499 21.0469 16.2572 19.9583L21.7456 8.17967C22.1876 7.2312 22.4086 6.75695 22.3285 6.41893C22.2588 6.12486 22.0599 5.87807 21.7874 5.74755C21.474 5.59751 20.9637 5.71273 19.943 5.94317L7.26737 8.80496C6.09594 9.06944 5.51021 9.20168 5.28944 9.49569C5.09785 9.75084 5.03952 10.0821 5.13243 10.3873C5.2395 10.7391 5.74481 11.0635 6.75546 11.7121L10.9375 14.3966C11.1041 14.5035 11.1874 14.5569 11.2572 14.6238C11.3193 14.6833 11.3735 14.7505 11.4183 14.8237C11.469 14.9063 11.5035 14.999 11.5726 15.1844Z" stroke="#113B65" stroke-width="2" stroke-linecap="round" stroke-linejoin="round"/>
</svg>
