<svg width="76" height="63" viewBox="0 0 76 63" fill="none" xmlns="http://www.w3.org/2000/svg">
<rect width="76" height="63" rx="12" fill="#B4D9FF"/>
<path fill-rule="evenodd" clip-rule="evenodd" d="M36.2001 20.3C33.5745 20.3 31.0564 21.343 29.1997 23.1997C27.3431 25.0563 26.3001 27.5744 26.3001 30.2C26.3001 32.8257 27.3431 35.3438 29.1997 37.2004C31.0564 39.057 33.5745 40.1 36.2001 40.1C38.8257 40.1 41.3438 39.057 43.2005 37.2004C45.0571 35.3438 46.1001 32.8257 46.1001 30.2C46.1001 27.5744 45.0571 25.0563 43.2005 23.1997C41.3438 21.343 38.8257 20.3 36.2001 20.3ZM23.6001 30.2C23.6003 28.1852 24.0836 26.1998 25.0096 24.4104C25.9355 22.621 27.2771 21.0797 28.9217 19.9159C30.5664 18.752 32.4661 17.9996 34.4617 17.7216C36.4572 17.4436 38.4903 17.6482 40.3904 18.3183C42.2905 18.9883 44.0022 20.1042 45.382 21.5725C46.7617 23.0407 47.7693 24.8184 48.3201 26.7564C48.8709 28.6945 48.9489 30.7363 48.5476 32.7108C48.1463 34.6852 47.2774 36.5346 46.0137 38.1038L52.0041 44.096C52.1367 44.2196 52.2431 44.3686 52.3169 44.5342C52.3907 44.6998 52.4304 44.8786 52.4336 45.0599C52.4368 45.2411 52.4034 45.4212 52.3355 45.5893C52.2676 45.7574 52.1666 45.9101 52.0384 46.0383C51.9102 46.1665 51.7575 46.2675 51.5894 46.3354C51.4213 46.4033 51.2412 46.4367 51.06 46.4335C50.8787 46.4303 50.6999 46.3906 50.5343 46.3168C50.3687 46.243 50.2197 46.1367 50.0961 46.004L44.1039 40.0136C42.2527 41.5047 40.0174 42.4417 37.6563 42.7164C35.2952 42.9912 32.9045 42.5924 30.7604 41.5662C28.6163 40.5399 26.8062 38.9281 25.5392 36.9169C24.2722 34.9057 23.5999 32.5771 23.6001 30.2Z" fill="#113B65"/>
</svg>
