<svg width="57" height="50" viewBox="0 0 57 50" fill="none" xmlns="http://www.w3.org/2000/svg">
<rect width="57" height="50" rx="9" fill="#B4D9FF"/>
<path d="M27.6584 12.1708L19.6832 16.1584C18.5124 16.7438 17.927 17.0365 17.927 17.5C17.927 17.9635 18.5124 18.2562 19.6832 18.8417L27.6584 22.8292C28.3167 23.1583 28.6458 23.323 29 23.323C29.3541 23.323 29.6832 23.1583 30.3416 22.8292L38.3166 18.8417C39.4875 18.2562 40.073 17.9635 40.073 17.5C40.073 17.0365 39.4875 16.7438 38.3166 16.1584L30.3416 12.1708C29.6832 11.8417 29.3541 11.6771 29 11.6771C28.6458 11.6771 28.3167 11.8417 27.6584 12.1708Z" fill="#113B65"/>
<path fill-rule="evenodd" clip-rule="evenodd" d="M21.533 22.7339C22.4388 23.2202 23.5055 23.7535 24.7331 24.3673L26.3166 25.1591C27.6334 25.8175 28.2918 26.1466 28.9999 26.1466C29.7081 26.1466 30.3664 25.8175 31.6833 25.1591L33.2668 24.3673C34.4944 23.7535 35.5611 23.2202 36.4669 22.7339L38.3167 23.6588C39.4875 24.2441 40.0729 24.5369 40.0729 25.0004C40.0729 25.4639 39.4875 25.7566 38.3167 26.342L30.3415 30.3296C29.6832 30.6587 29.3541 30.8233 28.9999 30.8233C28.6458 30.8233 28.3167 30.6587 27.6583 30.3296L19.6832 26.342C18.5124 25.7566 17.927 25.4639 17.927 25.0004C17.927 24.5369 18.5124 24.2441 19.6832 23.6588L21.533 22.7339Z" fill="#113B65"/>
<path fill-rule="evenodd" clip-rule="evenodd" d="M21.5323 30.2339C22.4383 30.7202 23.5052 31.2538 24.7331 31.8677L26.3167 32.6594C27.6334 33.3178 28.2918 33.647 28.9999 33.647C29.7082 33.647 30.3666 33.3178 31.6833 32.6594L33.2668 31.8677C34.4947 31.2538 35.5617 30.7202 36.4677 30.2339L38.3167 31.1584C39.4875 31.7438 40.0729 32.0365 40.0729 32.5C40.0729 32.9636 39.4875 33.2563 38.3167 33.8417L30.3415 37.8292C29.6832 38.1584 29.3541 38.323 28.9999 38.323C28.6458 38.323 28.3167 38.1584 27.6583 37.8292L19.6832 33.8417C18.5124 33.2563 17.927 32.9636 17.927 32.5C17.927 32.0365 18.5124 31.7438 19.6832 31.1584L21.5323 30.2339Z" fill="#113B65"/>
</svg>
