<svg width="57" height="50" viewBox="0 0 57 50" fill="none" xmlns="http://www.w3.org/2000/svg">
<rect width="57" height="50" rx="9" fill="#B4D9FF"/>
<path d="M29 10C25.8174 10 22.7652 11.2643 20.5147 13.5147C18.2643 15.7652 17 18.8174 17 22V24.85C16.5475 25.2443 16.1809 25.7273 15.9228 26.2692C15.6648 26.8111 15.5209 27.4002 15.5 28C15.5342 28.8698 15.8303 29.7089 16.3495 30.4075C16.8688 31.1061 17.587 31.6316 18.41 31.915C20.36 36.58 24.275 40 29 40H33.5V37H29C25.61 37 22.535 34.45 20.99 30.415L20.675 29.59L19.79 29.5C19.4296 29.4491 19.1 29.2688 18.8626 28.9928C18.6253 28.7168 18.4964 28.364 18.5 28C18.5016 27.7382 18.5716 27.4814 18.7032 27.2551C18.8348 27.0288 19.0233 26.8409 19.25 26.71L20 26.275V23.5C20 23.1022 20.158 22.7206 20.4393 22.4393C20.7206 22.158 21.1022 22 21.5 22H36.5C36.8978 22 37.2794 22.158 37.5607 22.4393C37.842 22.7206 38 23.1022 38 23.5V31H31.865C31.7288 30.6181 31.492 30.2802 31.1796 30.0218C30.8672 29.7635 30.4907 29.5943 30.0901 29.5323C29.6895 29.4702 29.2795 29.5176 28.9036 29.6693C28.5276 29.821 28.1997 30.0715 27.9544 30.3943C27.709 30.7171 27.5555 31.1001 27.51 31.503C27.4644 31.9058 27.5286 32.3135 27.6956 32.6829C27.8627 33.0523 28.1264 33.3697 28.459 33.6015C28.7916 33.8334 29.1806 33.971 29.585 34H41C41.7956 34 42.5587 33.6839 43.1213 33.1213C43.6839 32.5587 44 31.7956 44 31V28C44 27.2044 43.6839 26.4413 43.1213 25.8787C42.5587 25.3161 41.7956 25 41 25V22C41 18.8174 39.7357 15.7652 37.4853 13.5147C35.2348 11.2643 32.1826 10 29 10Z" fill="#113B65"/>
</svg>
