<svg width="76" height="63" viewBox="0 0 76 63" fill="none" xmlns="http://www.w3.org/2000/svg">
<rect width="76" height="63" rx="12" fill="#B4D9FF"/>
<g clip-path="url(#clip0_162_9)">
<path d="M36.3125 32C36.3125 32.4476 36.4902 32.8768 36.8067 33.1932C37.1232 33.5097 37.5524 33.6875 38 33.6875C38.4475 33.6875 38.8767 33.5097 39.1932 33.1932C39.5097 32.8768 39.6875 32.4476 39.6875 32C39.6875 31.5524 39.5097 31.1232 39.1932 30.8068C38.8767 30.4903 38.4475 30.3125 38 30.3125C37.5524 30.3125 37.1232 30.4903 36.8067 30.8068C36.4902 31.1232 36.3125 31.5524 36.3125 32ZM43.3437 32C43.3437 32.4476 43.5215 32.8768 43.838 33.1932C44.1544 33.5097 44.5837 33.6875 45.0312 33.6875C45.4788 33.6875 45.908 33.5097 46.2244 33.1932C46.5409 32.8768 46.7187 32.4476 46.7187 32C46.7187 31.5524 46.5409 31.1232 46.2244 30.8068C45.908 30.4903 45.4788 30.3125 45.0312 30.3125C44.5837 30.3125 44.1544 30.4903 43.838 30.8068C43.5215 31.1232 43.3437 31.5524 43.3437 32ZM29.2812 32C29.2812 32.4476 29.459 32.8768 29.7755 33.1932C30.0919 33.5097 30.5212 33.6875 30.9687 33.6875C31.4163 33.6875 31.8455 33.5097 32.1619 33.1932C32.4784 32.8768 32.6562 32.4476 32.6562 32C32.6562 31.5524 32.4784 31.1232 32.1619 30.8068C31.8455 30.4903 31.4163 30.3125 30.9687 30.3125C30.5212 30.3125 30.0919 30.4903 29.7755 30.8068C29.459 31.1232 29.2812 31.5524 29.2812 32ZM52.5265 25.8969C51.732 24.009 50.5929 22.3145 49.141 20.859C47.6992 19.4119 45.9876 18.2617 44.1031 17.4734C42.1695 16.6613 40.1164 16.25 38 16.25H37.9296C35.7992 16.2605 33.7355 16.6824 31.7949 17.5121C29.9265 18.3085 28.231 19.4607 26.8027 20.9047C25.3648 22.3566 24.2363 24.0441 23.4558 25.925C22.6472 27.8727 22.2394 29.9434 22.25 32.0738C22.2619 34.5153 22.8395 36.9208 23.9375 39.1016V44.4453C23.9375 44.8742 24.1078 45.2856 24.4111 45.5888C24.7144 45.8921 25.1257 46.0625 25.5546 46.0625H30.9019C33.0826 47.1605 35.4881 47.7381 37.9296 47.75H38.0035C40.1093 47.75 42.1519 47.3422 44.075 46.5441C45.9499 45.7653 47.6552 44.6284 49.0953 43.1973C50.5472 41.7594 51.6898 40.0789 52.4878 38.2051C53.3175 36.2645 53.7394 34.2008 53.75 32.0703C53.7605 29.9293 53.3457 27.8516 52.5265 25.8969ZM47.2144 41.2953C44.75 43.7352 41.4804 45.0781 38 45.0781H37.9402C35.8203 45.0676 33.7144 44.5402 31.8546 43.5488L31.5593 43.3906H26.6093V38.4406L26.4511 38.1453C25.4597 36.2855 24.9324 34.1797 24.9218 32.0598C24.9078 28.5547 26.2472 25.2641 28.7046 22.7855C31.1585 20.307 34.4386 18.9359 37.9437 18.9219H38.0035C39.7613 18.9219 41.4664 19.2629 43.073 19.9379C44.641 20.5953 46.0472 21.541 47.2566 22.7504C48.4625 23.9562 49.4117 25.366 50.0691 26.934C50.7511 28.5582 51.0921 30.2809 51.0851 32.0598C51.064 35.5613 49.6894 38.8414 47.2144 41.2953Z" fill="#113B65"/>
</g>
<defs>
<clipPath id="clip0_162_9">
<rect width="36" height="36" fill="white" transform="translate(20 14)"/>
</clipPath>
</defs>
</svg>
