<svg width="76" height="63" viewBox="0 0 76 63" fill="none" xmlns="http://www.w3.org/2000/svg">
<rect width="76" height="63" rx="12" fill="#B4D9FF"/>
<g clip-path="url(#clip0_162_10)">
<g clip-path="url(#clip1_162_10)">
<path d="M44.3001 37.4C44.0614 37.4 43.8325 37.4948 43.6637 37.6636C43.4949 37.8323 43.4001 38.0613 43.4001 38.3C43.4001 38.5386 43.4949 38.7676 43.6637 38.9363C43.8325 39.1051 44.0614 39.2 44.3001 39.2H47.9001C48.1388 39.2 48.3677 39.1051 48.5365 38.9363C48.7053 38.7676 48.8001 38.5386 48.8001 38.3C48.8001 38.0613 48.7053 37.8323 48.5365 37.6636C48.3677 37.4948 48.1388 37.4 47.9001 37.4H44.3001ZM23.6001 26.15C23.6001 24.8371 24.1216 23.5781 25.0499 22.6498C25.9782 21.7215 27.2373 21.2 28.5501 21.2H47.4501C48.7629 21.2 50.022 21.7215 50.9503 22.6498C51.8786 23.5781 52.4001 24.8371 52.4001 26.15V37.85C52.4001 39.1628 51.8786 40.4218 50.9503 41.3501C50.022 42.2784 48.7629 42.8 47.4501 42.8H28.5501C27.2373 42.8 25.9782 42.2784 25.0499 41.3501C24.1216 40.4218 23.6001 39.1628 23.6001 37.85V26.15ZM28.5501 23C27.7147 23 26.9135 23.3318 26.3227 23.9226C25.732 24.5133 25.4001 25.3145 25.4001 26.15V28.4H50.6001V26.15C50.6001 25.3145 50.2682 24.5133 49.6775 23.9226C49.0867 23.3318 48.2855 23 47.4501 23H28.5501ZM50.6001 30.2H25.4001V37.85C25.4001 39.5888 26.8113 41 28.5501 41H47.4501C48.2855 41 49.0867 40.6681 49.6775 40.0773C50.2682 39.4866 50.6001 38.6854 50.6001 37.85V30.2Z" fill="#113B65"/>
</g>
</g>
<defs>
<clipPath id="clip0_162_10">
<rect width="36" height="36" fill="white" transform="translate(20 14)"/>
</clipPath>
<clipPath id="clip1_162_10">
<rect width="36" height="36" fill="white" transform="translate(20 14)"/>
</clipPath>
</defs>
</svg>
